<?xml version="1.0" encoding="utf-8"?>
<!-- Generator: Adobe Illustrator 25.0.1, SVG Export Plug-In . SVG Version: 6.00 Build 0)  -->
<svg version="1.1" id="Layer_1" xmlns="http://www.w3.org/2000/svg" xmlns:xlink="http://www.w3.org/1999/xlink" x="0px" y="0px"
	 viewBox="0 0 100 100" style="enable-background:new 0 0 100 100;" xml:space="preserve">
<style type="text/css">
	.st0{fill:none;stroke:#000000;stroke-width:3;stroke-miterlimit:10;}
</style>
<path class="st0" d="M96,40.8c0-5.5,0.1-11-1-16.4c-1.4-7-5-12.5-11.2-16.3c-4.6-2.8-9.6-3.8-14.9-3.9C62.6,4.1,56.3,4.1,50.1,4
	c0,0,0,0.1,0,0.1c-4.3,0-8.7-0.1-13,0C32.5,4.2,28,4.2,23.6,5.3C14.8,7.5,8.8,12.8,5.9,21.4c-1.6,4.6-1.7,9.4-1.8,14.1
	C4,44.7,4,53.9,4.1,63.1c0,4.5,0.1,9.1,1.2,13.5c2.2,8.6,7.4,14.6,15.9,17.5c4.6,1.6,9.5,1.8,14.3,1.8c9.2,0.1,18.4,0.1,27.6,0
	c4.5,0,9-0.1,13.4-1.2c8.8-2.2,14.8-7.5,17.7-16.2c1.5-4.6,1.7-9.4,1.8-14.1C96,56.6,96,48.7,96,40.8z"/>
<path class="st0" d="M87.6,61.7c-0.1,4.2,0,8.4-0.9,12.5C85,82,79.6,86.4,72,87.1c-7.3,0.6-14.7,0.6-19.9,0.8
	c-8.4-0.2-14.6-0.2-20.8-0.5c-2.4-0.1-4.9-0.5-7.2-1.2c-6.3-1.9-9.9-6.4-10.9-12.8c-0.6-3.8-0.8-7.8-0.8-11.6
	c-0.1-7.8-0.1-15.7,0-23.5c0.1-4.2,0-8.4,0.9-12.5c1.5-6.9,6.4-11.6,13.4-12.6c3.9-0.5,8-0.7,11.9-0.8c7.6-0.1,15.2-0.1,22.9,0
	c4.3,0.1,8.6,0,12.8,0.9c6.8,1.5,11.6,6.4,12.6,13.3c0.6,3.9,0.8,7.8,0.8,11.7C87.8,46.2,87.8,53.9,87.6,61.7z"/>
<path class="st0" d="M50,26.4c-12.9-0.2-23.8,10.7-23.7,24C26.5,63.1,37,73.6,49.9,73.7c13.1,0.1,24-10.8,23.8-24.1
	C73.5,36.9,62.9,26.5,50,26.4z"/>
<path class="st0" d="M50,65.4c-1.7,0-3.4-0.3-4.9-0.8c-0.1,0-0.2-0.1-0.3-0.1c-0.2-0.1-0.5-0.2-0.7-0.3c-0.2-0.1-0.5-0.2-0.7-0.3
	c-1.6-0.8-3-1.8-4.2-3c-0.2-0.2-0.3-0.3-0.5-0.5c-0.2-0.2-0.3-0.4-0.5-0.6c-0.2-0.3-0.5-0.6-0.7-0.9c-0.1-0.2-0.3-0.4-0.4-0.6
	c-0.1-0.2-0.3-0.4-0.4-0.6l0,0c-0.1-0.2-0.2-0.4-0.4-0.7l0,0c-0.1-0.2-0.2-0.4-0.3-0.7c-0.5-1.1-0.9-2.3-1.1-3.6
	c0-0.2-0.1-0.5-0.1-0.8c-0.1-0.6-0.1-1.3-0.1-1.9c0-8.4,6.8-15.3,15.2-15.4c1.7,0,3.4,0.3,5,0.8c0.6,0.2,1.2,0.4,1.7,0.7l0,0
	c0.2,0.1,0.4,0.2,0.7,0.3l0,0c0.2,0.1,0.4,0.2,0.6,0.4c0.3,0.2,0.6,0.4,0.9,0.6c0.3,0.2,0.6,0.4,0.9,0.7c0.4,0.3,0.7,0.6,1.1,1
	c0.3,0.3,0.7,0.7,1,1.1c0.2,0.3,0.5,0.6,0.7,0.9c0.2,0.3,0.4,0.6,0.6,0.9c0.1,0.2,0.3,0.4,0.4,0.6c0.1,0.2,0.2,0.4,0.3,0.7
	c0.1,0.1,0.1,0.2,0.2,0.3c0.1,0.3,0.3,0.7,0.4,1c0.1,0.3,0.2,0.7,0.3,1.1c0.1,0.2,0.1,0.5,0.2,0.7c0.3,1.1,0.4,2.3,0.4,3.4
	C65.3,58.4,58.4,65.3,50,65.4z"/>
<path class="st0" d="M74.6,32.3C74.6,32.3,74.5,32.3,74.6,32.3c-3.8-0.1-6.8-3.1-6.8-6.7c0-1.8,0.7-3.5,1.9-4.8c1.3-1.3,3-2,4.9-2
	c0,0,0,0,0,0c3.7,0,6.6,3,6.6,6.7c0,1.8-0.7,3.6-2,4.9C77.9,31.6,76.3,32.3,74.6,32.3z"/>
</svg>
