<?xml version="1.0" encoding="utf-8"?>
<!-- Generator: Adobe Illustrator 25.0.1, SVG Export Plug-In . SVG Version: 6.00 Build 0)  -->
<svg version="1.1" id="Layer_1" xmlns="http://www.w3.org/2000/svg" xmlns:xlink="http://www.w3.org/1999/xlink" x="0px" y="0px"
	 viewBox="0 0 100 100" style="enable-background:new 0 0 100 100;" xml:space="preserve">
<style type="text/css">
	.st0{fill:none;stroke:#000000;stroke-width:3;stroke-miterlimit:10;}
</style>
<path class="st0" d="M95.9,22.7c0-3.2,0-6.3,0-9.5c0-5-4.1-9.1-9.1-9.1c-24.5,0-49,0-73.6,0c-4.3,0-8,3-9,7.2
	c-0.1,0.2-0.1,0.4-0.2,0.7V88c0.4,1.7,1,3.2,2.1,4.6c1.4,1.7,3.2,2.8,5.3,3.2c0.1,0,0.3,0.1,0.4,0.2H88c1.6-0.4,3.2-1,4.5-2.1
	c2.2-1.9,3.4-4.3,3.4-7.3C95.9,65.3,95.9,44,95.9,22.7z"/>
<rect x="17.9" y="40.9" class="st0" width="13.6" height="41.2"/>
<path class="st0" d="M24.7,33c-4.6,0-8.2-3.5-8.2-8.2c0-4.8,3.6-8.2,8.3-8.2c4.5,0,8.2,3.7,8.2,8.2C33,29.3,29.3,33,24.7,33z"/>
<path class="st0" d="M82.1,81.1v1H68.4v-1c0-7.5,0-15,0-22.5c0-1.9-0.5-3.6-1.7-5.1c-1.7-2-4.6-2.9-7-2.2c-2.8,0.9-4.8,3.2-5,5.9
	c-0.1,0.7-0.1,1.5-0.1,2.2c0,7.2,0,14.3,0,21.4v1.3H40.9V40.9h13.6v5.4c0.7-0.7,1.1-1.3,1.6-1.8c5.3-5.4,13.1-6,19.2-1.5
	c4.5,3.3,6.9,7.8,6.9,13.5C82.1,64.6,82.1,72.9,82.1,81.1z"/>
</svg>
