<?xml version="1.0" encoding="utf-8"?>
<!-- Generator: Adobe Illustrator 25.4.1, SVG Export Plug-In . SVG Version: 6.00 Build 0)  -->
<svg version="1.1" id="Layer_1" xmlns="http://www.w3.org/2000/svg" xmlns:xlink="http://www.w3.org/1999/xlink" x="0px" y="0px"
	 viewBox="0 0 368.6 600.7" style="enable-background:new 0 0 368.6 600.7;" xml:space="preserve">
<style type="text/css">
	.st0{fill:none;stroke:#000000;stroke-width:30;stroke-miterlimit:10;}
</style>
<g>
	<path d="M184.3,598.7l-160-317.1C7.8,249.2,0.2,215.2,1.4,180.8c1.1-32.2,10.4-63.7,26.8-90.8c15.5-25.7,37.2-47.2,62.7-62.3
		c27.1-16,57.4-24.4,90-25c2.3,0,4.6,0,6.9,0c32.6,0.6,62.9,9,90,25c25.5,15,47.2,36.6,62.7,62.3c16.4,27.2,25.6,58.6,26.8,90.8
		c1.2,34.4-6.5,68.3-22.9,100.8L184.3,598.7z M184.3,33.4c-1,0-1.9,0-2.9,0c-27.3,0.5-52.5,7.5-75,20.7
		c-21.1,12.5-39.1,30.3-52,51.7c-13.7,22.7-21.4,49-22.4,76.1c-1,29.2,5.6,58.1,19.6,85.9l132.7,262.8l132.6-262.8
		c14-27.8,20.6-56.7,19.6-85.9c-1-27-8.7-53.3-22.4-76.1c-12.9-21.4-30.9-39.2-52-51.7c-22.5-13.3-47.7-20.2-75-20.7h0
		C186.2,33.4,185.2,33.4,184.3,33.4z"/>
</g>
<path class="st0" d="M586.4,27.4c123.7,2.3,199.9,132.1,140,250.9l-48,95.1l-95,188.3l-95-188.3l-48-95.1
	c-60-118.8,16.3-248.6,140-250.9c1,0,2.1,0,3.1,0C584.3,27.4,585.3,27.4,586.4,27.4z"/>
</svg>
